<?xml version="1.0" encoding="utf-8"?>
<!-- Generator: Adobe Illustrator 27.5.0, SVG Export Plug-In . SVG Version: 6.00 Build 0)  -->
<svg version="1.1" id="Capa_1" xmlns="http://www.w3.org/2000/svg" xmlns:xlink="http://www.w3.org/1999/xlink" x="0px" y="0px"
	 viewBox="0 0 2185 2061" style="enable-background:new 0 0 2185 2061;" xml:space="preserve">
<path style="fill:#203A73;" d="M440.098,646.488c5.07-22.133,12.906-59.777,14.438-65.09c7.582-26.324,16.617-52.266,27.195-77.539
	c1.848-4.41,4.164-10.68,6.992-17.371c9.547-32.883,21.035-65.031,34.32-96.016c1.488-3.465,2.992-6.926,4.512-10.383
	c-24.809,5.387-45.977,12.105-54.504,19.234c-13.348,11.16-22.184,25.813-30.188,40.434
	c-34.191,62.488-52.836,127.359-57.84,192.644c11.91,8.34,24.348,15.926,37.324,22.484
	C429.566,658.531,438.293,654.367,440.098,646.488z"/>
<path style="fill:#203A73;" d="M1736.859,439.758c-8-14.621-16.832-29.273-30.188-40.434c-8.535-7.137-29.73-13.859-54.563-19.246
	c1.551,3.445,3.078,6.906,4.57,10.395c19.867,46.32,35.77,95.223,47.027,145.344c4.844,7.082,9.566,12.117,12.586,20.602
	c7.414,20.848,13.645,41.879,21.27,62.57c2.332,6.328,4.793,12.621,7.461,18.867c18.508-7.75,34.098-18.5,46.875-32.113
	C1784.324,549.484,1766.395,493.73,1736.859,439.758z"/>
<path style="fill:#1F2A50;" d="M1796.141,668.07c-0.023-20.805-1.453-41.598-4.242-62.328
	c-12.777,13.613-28.367,24.363-46.875,32.113c-2.668-6.246-5.129-12.539-7.461-18.867c-7.625-20.691-13.855-41.723-21.27-62.57
	c-3.02-8.484-7.742-13.52-12.586-20.602c9.5,42.285,15.676,85.438,18.105,128.644c4.047,72.195-2.363,144.543-21.305,213.246
	c-7.887,28.609-18.754,59.293-32.875,88.981c26.441-7.394,49.297-16.125,57.836-24.332c12.547-12.055,20.352-27.285,27.32-42.426
	C1787.996,823.457,1801.391,745.152,1796.141,668.07z"/>
<path style="fill:#1F2A50;" d="M457.012,687.059c1.727-67.691,12.852-135.586,31.711-200.57c-2.828,6.691-5.145,12.961-6.992,17.371
	c-10.578,25.273-19.613,51.215-27.195,77.539c-1.531,5.313-9.367,42.957-14.438,65.09c-1.805,7.879-10.531,12.043-17.75,8.398
	c-12.977-6.559-25.414-14.145-37.324-22.484c-0.91,11.883-1.422,23.773-1.438,35.668c-5.254,77.082,8.145,155.387,43.352,231.859
	c6.969,15.141,14.773,30.371,27.316,42.426c8.539,8.207,31.398,16.938,57.844,24.332c-14.125-29.688-24.992-60.371-32.879-88.981
	C462.258,816.172,455.367,751.711,457.012,687.059z"/>
<path style="fill:#EBF2E5;" d="M1703.707,535.816c-11.258-50.121-27.16-99.023-47.027-145.344c-1.492-3.488-3.02-6.949-4.57-10.395
	c-20.461-45.559-45.973-87.469-87.086-118.902c-72.703-55.574-868.621-53.762-950.316,0
	c-43.254,28.465-66.949,72.961-87.152,118.914c-1.52,3.457-3.023,6.918-4.512,10.383c-13.285,30.984-24.774,63.133-34.32,96.016
	c-18.859,64.984-29.984,132.879-31.711,200.57c12.719,14.746,26.598,28.496,41.426,41.106
	c21.277,18.098,47.324,46.512,75.832,26.824c22.34-15.426,17.945-43.313,20.07-67.152c2.242-25.16,4.777-50.637,10.668-75.25
	c3.492-14.605,7.672-29.07,12.496-43.313c11.402-58.824,35.133-114.684,76.844-158.66c10.785-11.371,205.391-15.465,395.516-14.496
	c190.125-0.969,384.73,3.125,395.516,14.496c35.176,37.086,57.539,82.637,70.539,131.273c3.156,6.359,6.141,12.801,8.883,19.348
	c10.094,24.133,16.484,47.883,19.969,73.684l11.277,83.707c1.941,14.371,17.145,22.981,30.379,17.059
	c26.379-11.801,51.074-26.543,72.375-46.129c8.785-8.078,16.367-16.461,23.012-25.094
	C1719.383,621.254,1713.207,578.102,1703.707,535.816z"/>
<path style="fill:#C6CAD6;" d="M1721.813,664.461c-6.645,8.633-14.227,17.016-23.012,25.094
	c-21.301,19.586-45.996,34.328-72.375,46.129c-13.234,5.922-28.438-2.688-30.379-17.059l-11.277-83.707
	c-3.484-25.801-9.875-49.551-19.969-73.684c-2.742-6.547-5.727-12.988-8.883-19.348c8.629,32.309,13.145,65.973,14.461,99.453
	c3.363,18.07,5.434,36.535,6.152,55.066c2.824,73.055-17.922,244.629-63.289,266.328c-50.891,24.336-753.715,1.047-804.211-3.094
	c-41.961-3.441-55.938-25.691-68.449-65.734c-10.781-34.523-17.258-71.176-19.078-108.004c-13.254-65.301-18.227-143.258-4-216.629
	c-4.824,14.242-9.004,28.707-12.496,43.313c-5.891,24.613-8.426,50.09-10.668,75.25c-2.125,23.84,2.27,51.727-20.07,67.152
	c-28.508,19.688-54.555-8.727-75.832-26.824c-14.828-12.609-28.707-26.359-41.426-41.106
	c-1.645,64.652,5.246,129.113,22.207,190.648c7.887,28.609,18.754,59.293,32.879,88.981c22.117,46.496,52.289,90.527,91.996,120.133
	c2.777,2.066,13.516,3.941,30.68,5.617c146.656,14.332,763.516,14.332,910.184,0c17.16-1.676,27.902-3.551,30.676-5.617
	c39.707-29.605,69.875-73.637,92-120.133c14.121-29.688,24.988-60.371,32.875-88.981
	C1719.449,809.004,1725.859,736.656,1721.813,664.461z"/>
<path style="fill:#A1A8C3;" d="M1493.906,936.176c-12.051,7.113-210.289,10.582-404.043,10.41
	c-193.754,0.172-391.996-3.297-404.043-10.41c-20.844-12.313-48.481-72.25-64.316-150.273c1.82,36.828,8.297,73.481,19.078,108.004
	c12.512,40.043,26.488,62.293,68.449,65.734c50.496,4.141,753.32,27.43,804.211,3.094c45.367-21.699,66.113-193.273,63.289-266.328
	c-0.719-18.531-2.789-36.996-6.152-55.066C1575.895,780.836,1526.551,916.894,1493.906,936.176z"/>
<path style="fill:#1F2A50;" d="M1570.379,641.34c-1.316-33.48-5.832-67.144-14.461-99.453c-13-48.637-35.363-94.188-70.539-131.273
	c-10.785-11.371-205.391-15.465-395.516-14.496c-190.125-0.969-384.73,3.125-395.516,14.496
	c-41.711,43.977-65.441,99.836-76.844,158.66c-14.227,73.371-9.254,151.328,4,216.629c15.836,78.023,43.473,137.961,64.316,150.273
	c12.047,7.113,210.289,10.582,404.043,10.41c193.754,0.172,391.992-3.297,404.043-10.41
	C1526.551,916.894,1575.895,780.836,1570.379,641.34z"/>
<path style="fill:#203A73;" d="M685.859,628.66c-6.141,30.84-11.141,63.57-0.371,93.113c17.281,47.387,69.109,51.375,112.555,49.574
	c1.703-0.07,3.418-0.168,5.121-0.238c-6.926-13.289-10.535-28.598-11.445-43.223c-2.25-36.07,1.68-175.285,19.848-195.031
	c26.5-28.797,83.652-29.102,110.426,0c18.168,19.754,22.098,158.961,19.848,195.031c-0.734,11.762-3.219,23.953-7.758,35.191
	c66.047-5.352,132.195-12.813,197.418-23.227c35.516-5.672,70.871-12.32,106.043-19.828c-1.363-45.043,3.152-168.648,20.191-187.168
	c26.5-28.797,83.648-29.102,110.426,0c12.984,14.117,18.691,89.23,20.078,144.121c16.914-8.231,32.961-18.621,48.008-32.539
	c30.836-28.535,56.305-74.883,36-116.613c-11.508-23.672-33.707-40.797-57.848-51.289c-24.137-10.488-50.367-15.059-76.336-19.309
	c-171.695-28.105-348.422-46.078-518.852-11.098c-21.227,4.355-44.723,9.152-63.715,20.094
	c-16.738,9.645-25.207,27.844-33.645,45.023C703.727,548.156,693.852,588.523,685.859,628.66z"/>
<path style="fill:#3EC0F0;" d="M921.992,532.856c-26.773-29.102-83.926-28.797-110.426,0
	c-18.168,19.746-22.098,158.961-19.848,195.031c0.91,14.625,4.52,29.934,11.445,43.223c5.5,10.563,13.094,19.859,23.117,26.516
	c21.746,14.445,58.551,14.91,80.996,0c12.492-8.301,21.211-20.695,26.805-34.547c4.539-11.238,7.023-23.43,7.758-35.191
	C944.09,691.816,940.16,552.609,921.992,532.856z"/>
<path style="fill:#3EC0F0;" d="M1257.734,532.856c-17.039,18.519-21.555,142.125-20.191,187.168c0.09,2.981,0.207,5.625,0.348,7.863
	c1.633,26.254,11.93,54.707,34.559,69.738c21.742,14.445,58.547,14.91,80.992,0c22.637-15.031,32.93-43.484,34.566-69.738
	c0.641-10.289,0.781-28.996,0.23-50.91c-1.387-54.891-7.094-130.004-20.078-144.121
	C1341.383,503.754,1284.234,504.059,1257.734,532.856z"/>
</svg>
